<?xml version="1.0" standalone="no"?><!DOCTYPE svg PUBLIC "-//W3C//DTD SVG 1.1//EN" "http://www.w3.org/Graphics/SVG/1.1/DTD/svg11.dtd"><svg t="1616483442777" class="icon" viewBox="0 0 1024 1024" version="1.1" xmlns="http://www.w3.org/2000/svg" p-id="1036" xmlns:xlink="http://www.w3.org/1999/xlink" width="200" height="200"><defs><style type="text/css"></style></defs><path d="M512 587.3L146 376c-14.3-8.3-32.7-3.3-41 11-8.3 14.3-3.3 32.7 11 41l380.2 219.5c0.7 0.4 1.3 0.8 2 1.1 0.1 0 0.2 0.1 0.3 0.1 0.3 0.1 0.5 0.3 0.8 0.4 0.2 0.1 0.5 0.2 0.7 0.3 0.1 0 0.2 0.1 0.2 0.1 3.6 1.5 7.3 2.3 11 2.4h1.4c3.7-0.1 7.5-0.9 11-2.4 0.1 0 0.2-0.1 0.3-0.1 0.2-0.1 0.5-0.2 0.7-0.3 0.3-0.1 0.5-0.3 0.8-0.4 0.1 0 0.2-0.1 0.2-0.1 0.7-0.4 1.4-0.7 2-1.1L908 428c14.3-8.3 19.2-26.7 11-41-8.3-14.3-26.7-19.2-41-11L512 587.3z" fill="#2c2c2c" p-id="1037"></path></svg>