<?xml version="1.0" standalone="no"?><!DOCTYPE svg PUBLIC "-//W3C//DTD SVG 1.1//EN" "http://www.w3.org/Graphics/SVG/1.1/DTD/svg11.dtd"><svg t="1623403398743" class="icon" viewBox="0 0 1024 1024" version="1.1" xmlns="http://www.w3.org/2000/svg" p-id="564" xmlns:xlink="http://www.w3.org/1999/xlink" width="200" height="200"><defs><style type="text/css"></style></defs><path d="M832 878.4c-11.2-148.8-150.4-220.8-320-220.8s-308.8 70.4-320 220.8h640z" fill="#E95573" p-id="565" data-spm-anchor-id="a313x.7781069.0.i0" class="selected"></path><path d="M512 691.2c81.6 0 152 17.6 201.6 49.6 41.6 27.2 68.8 62.4 80 107.2H228.8c11.2-44.8 38.4-80 80-107.2 51.2-33.6 121.6-49.6 203.2-49.6m0-32c-169.6 0-308.8 70.4-320 220.8h640c-11.2-150.4-150.4-220.8-320-220.8z" fill="#322E2C" p-id="566"></path><path d="M512 691.2c81.6 0 152 17.6 201.6 49.6 41.6 27.2 68.8 62.4 80 107.2H228.8c11.2-44.8 38.4-80 80-107.2 51.2-32 121.6-49.6 203.2-49.6m0-32c-169.6 0-308.8 70.4-320 219.2h640c-11.2-148.8-150.4-219.2-320-219.2z" fill="#322E2C" p-id="567"></path><path d="M585.6 673.6L508.8 720l-75.2-46.4 8-112h136z" fill="#FFEDEB" p-id="568" data-spm-anchor-id="a313x.7781069.0.i3" class="selected"></path><path d="M564.8 576l6.4 88-60.8 36.8-62.4-36.8 6.4-88h110.4m28.8-32H424l-9.6 137.6 94.4 57.6 94.4-57.6-9.6-137.6z" fill="#322E2C" p-id="569"></path><path d="M686.4 412.8c0 72-72 228.8-177.6 228.8s-177.6-150.4-177.6-222.4 14.4-233.6 177.6-233.6 177.6 158.4 177.6 227.2z" fill="#FFEDEB" p-id="570" data-spm-anchor-id="a313x.7781069.0.i1" class="selected"></path><path d="M350.4 281.6h318.4v73.6H350.4z" fill="#E95573" p-id="571"></path><path d="M510.4 219.2c96 0 144 65.6 144 193.6 0 57.6-62.4 196.8-145.6 196.8-83.2 0-145.6-132.8-145.6-190.4 1.6-132.8 49.6-200 147.2-200m0-32c-163.2 0-177.6 163.2-177.6 233.6 0 72 72 222.4 177.6 222.4S688 484.8 688 414.4c-1.6-70.4-14.4-227.2-177.6-227.2z" fill="#322E2C" p-id="572"></path><path d="M688 404.8s32-108.8-1.6-180.8c-8-17.6-38.4-46.4-94.4-44.8 0 0-41.6-28.8-65.6-35.2-30.4-6.4-107.2 9.6-155.2 51.2-57.6 49.6-60.8 108.8-54.4 145.6 3.2 14.4 20.8 54.4 20.8 54.4s32-68.8 78.4-73.6c48-6.4 67.2-3.2 94.4-22.4 28.8-19.2 105.6-20.8 132.8 33.6s44.8 72 44.8 72z" fill="#6C73CA" p-id="573" data-spm-anchor-id="a313x.7781069.0.i2" class="selected"></path><path d="M510.4 177.6h9.6c12.8 3.2 40 19.2 54.4 28.8l9.6 6.4h16c38.4 0 56 19.2 60.8 25.6 9.6 20.8 12.8 46.4 11.2 72-22.4-33.6-60.8-54.4-107.2-54.4-25.6 0-49.6 6.4-67.2 17.6-16 11.2-27.2 11.2-56 14.4-8 0-16 1.6-25.6 3.2-27.2 3.2-48 19.2-65.6 36.8-3.2-25.6 0-68.8 44.8-107.2 32-30.4 88-43.2 115.2-43.2m0-32c-36.8 0-99.2 17.6-139.2 52.8-57.6 49.6-60.8 108.8-54.4 145.6 3.2 14.4 20.8 54.4 20.8 54.4s32-68.8 78.4-73.6c48-6.4 67.2-3.2 94.4-22.4 11.2-8 28.8-12.8 49.6-12.8 32 0 67.2 11.2 84.8 44.8 28.8 54.4 41.6 70.4 41.6 70.4s32-108.8-1.6-180.8c-8-16-36.8-44.8-89.6-44.8h-4.8S548.8 150.4 524.8 144c-3.2 1.6-8 1.6-14.4 1.6z" fill="#322E2C" p-id="574"></path></svg>