<?xml version="1.0" standalone="no"?><!DOCTYPE svg PUBLIC "-//W3C//DTD SVG 1.1//EN" "http://www.w3.org/Graphics/SVG/1.1/DTD/svg11.dtd"><svg t="1615877246899" class="icon" viewBox="0 0 1024 1024" version="1.1" xmlns="http://www.w3.org/2000/svg" p-id="17115" xmlns:xlink="http://www.w3.org/1999/xlink" width="200" height="200"><defs><style type="text/css"></style></defs><path d="M807.538939 256.459755a20.897959 20.897959 0 0 1 0 29.549714L571.099429 522.44898l236.43951 236.43951a20.897959 20.897959 0 0 1 0 29.549714l-29.549715 29.549714a20.897959 20.897959 0 0 1-29.549714 0L512 581.548408 275.56049 817.987918a20.897959 20.897959 0 0 1-29.549714 0l-29.549715-29.549714a20.897959 20.897959 0 0 1 0-29.549714L452.900571 522.44898 216.461061 286.009469a20.897959 20.897959 0 0 1 0-29.549714l29.549715-29.549714a20.897959 20.897959 0 0 1 29.549714 0L512 463.349551l236.43951-236.43951a20.897959 20.897959 0 0 1 29.549714 0l29.549715 29.549714z" fill="#ffffff" p-id="17116"></path></svg>