<?xml version="1.0" standalone="no"?><!DOCTYPE svg PUBLIC "-//W3C//DTD SVG 1.1//EN" "http://www.w3.org/Graphics/SVG/1.1/DTD/svg11.dtd"><svg t="1614567309807" class="icon" viewBox="0 0 1024 1024" version="1.1" xmlns="http://www.w3.org/2000/svg" p-id="6112" xmlns:xlink="http://www.w3.org/1999/xlink" width="200" height="200"><defs><style type="text/css"></style></defs><path d="M 117.364 943.185 a 34.5426 34.5426 0 0 1 -30.9756 -19.3357 c -8.51405 -17.2242 -1.55726 -38.1549 15.5387 -46.7443 l 218.307 -109.6 c 17.0922 -8.54045 37.8457 -1.55349 46.356 15.6669 c 8.51028 17.2279 1.54972 38.1549 -15.5425 46.7519 l -218.304 109.6 a 34.1995 34.1995 0 0 1 -15.3803 3.66127 Z m 0 0" fill="#fce518" p-id="6113" data-spm-anchor-id="a313x.7781069.0.i1" class="selected"></path><path d="M 234.37 738.055 c -51.1154 -59.026 -81.6077 -133.518 -81.6077 -214.447 c 0 -191.696 171.017 -347.107 381.987 -347.107 c 210.98 0 382.004 155.411 382.004 347.107 S 745.726 870.712 534.749 870.712 c -52.3747 0 -102.3 -9.59077 -147.749 -26.9297 c -3.20134 -1.21293 -6.38943 -2.47226 -9.55431 -3.78129 c -0.00331402 0 -114.93 -64.6896 -143.076 -101.946 Z m 0 0" fill="#fce518" p-id="6114" data-spm-anchor-id="a313x.7781069.0.i0" class="selected"></path><path d="M 512 887.32 c -60.3223 0 -118.895 -10.6746 -174.093 -31.7373 a 385.632 385.632 0 0 1 -11.3496 -4.49834 c -14.136 -5.84445 -20.8779 -22.1373 -15.0787 -36.3827 c 5.79921 -14.2416 21.9601 -21.0664 36.0923 -15.1956 c 3.28044 1.34611 6.59858 2.6432 9.92426 3.92144 c 48.9049 18.657 100.894 28.1213 154.509 28.1213 c 218.994 0 397.159 -160.658 397.159 -358.122 c 0 -197.471 -178.165 -358.122 -397.159 -358.122 S 114.849 275.956 114.849 473.427 c 0 80.6007 29.0224 156.737 83.949 220.166 c 10.0412 11.5984 8.85718 29.2185 -2.64697 39.3539 a 27.5066 27.5066 0 0 1 -39.0372 -2.66583 C 93.2693 656.524 59.5261 567.711 59.5261 473.423 C 59.5261 245.199 262.506 59.5261 512 59.5261 c 249.502 0 452.474 185.673 452.474 413.897 c 0 228.228 -202.972 413.897 -452.474 413.897 Z m 0 0" fill="#484848" p-id="6115"></path><path d="M 110.441 964.474 a 27.6348 27.6348 0 0 1 -24.7805 -15.4558 c -6.80973 -13.7929 -1.24053 -30.5307 12.4279 -37.3894 l 218.307 -109.593 c 13.6873 -6.85875 30.2818 -1.25184 37.0915 12.526 c 6.80973 13.7929 1.2443 30.5307 -12.4279 37.3932 l -218.304 109.589 a 27.4312 27.4312 0 0 1 -12.3148 2.92977 Z m 197.757 -418.063 c -31.1415 0 -56.4801 -25.5459 -56.4801 -56.9325 c 0 -31.4017 25.3385 -56.9476 56.4801 -56.9476 c 31.1377 0 56.4763 25.5459 56.4763 56.9476 c 0 31.3866 -25.3385 56.9325 -56.4763 56.9325 Z m 0 -79.0208 c -12.0773 0 -21.9035 9.90918 -21.9035 22.0883 c 0 12.1715 9.82245 22.0656 21.9035 22.0656 c 12.0735 0 21.8997 -9.89787 21.8997 -22.0656 c 0 -12.1791 -9.82623 -22.0883 -21.8997 -22.0883 Z M 512 546.411 c -31.134 0 -56.4687 -25.5459 -56.4687 -56.9325 c 0 -31.4017 25.3348 -56.9476 56.4687 -56.9476 c 31.1377 0 56.4763 25.5459 56.4763 56.9476 c 0.00377061 31.3866 -25.3348 56.9325 -56.4763 56.9325 Z m 0 -79.0208 c -12.0735 0 -21.8997 9.90918 -21.8997 22.0883 c 0 12.1715 9.82245 22.0656 21.8997 22.0656 s 21.8997 -9.89787 21.8997 -22.0656 c 0.00377061 -12.1791 -9.82245 -22.0883 -21.8997 -22.0883 Z m 205.472 79.0208 c -31.1453 0 -56.4801 -25.5459 -56.4801 -56.9325 c 0 -31.4017 25.3385 -56.9476 56.4801 -56.9476 s 56.4801 25.5459 56.4801 56.9476 c 0 31.3866 -25.3385 56.9325 -56.4801 56.9325 Z m 0 -79.0208 c -12.0735 0 -21.9073 9.90918 -21.9073 22.0883 c 0 12.1715 9.83 22.0656 21.9073 22.0656 s 21.9073 -9.89787 21.9073 -22.0656 c 0 -12.1791 -9.83377 -22.0883 -21.9073 -22.0883 Z m 0 0" fill="#484848" p-id="6116"></path></svg>