<?xml version="1.0" standalone="no"?><!DOCTYPE svg PUBLIC "-//W3C//DTD SVG 1.1//EN" "http://www.w3.org/Graphics/SVG/1.1/DTD/svg11.dtd"><svg t="1614580506882" class="icon" viewBox="0 0 1024 1024" version="1.1" xmlns="http://www.w3.org/2000/svg" p-id="3175" xmlns:xlink="http://www.w3.org/1999/xlink" width="200" height="200"><defs><style type="text/css"></style></defs><path d="M612.6 315.8H296.1c-55.2 0-100.1 44.9-100.1 100.1v316.5c0 55.2 44.9 100.1 100.1 100.1h316.5c55.2 0 100.1-44.9 100.1-100.1V415.9c0-55.2-44.9-100.1-100.1-100.1z m38.6 416.5c0 21.3-17.3 38.6-38.6 38.6H296.1c-21.3 0-38.6-17.3-38.6-38.6V415.9c0-21.3 17.3-38.6 38.6-38.6h316.5c21.3 0 38.6 17.3 38.6 38.6v316.4z" p-id="3176"></path><path d="M832.4 621.9V307.5h-0.1v-8.3c0-56.4-45.9-102.3-102.3-102.3H404.8c-1 0-1.9 0.1-2.9 0.1h-0.7c-0.8-0.1-1.6-0.1-2.6-0.1-17.4 0-31.5 14.1-31.5 31.5 0 17.3 14.1 31.4 31.4 31.5l9 0.1h322.6c21.6 0 39.2 17.6 39.2 39.2v322.7c0 1.8 0 3.5 0.1 5.2 0 1.7 0.1 3.4 0.1 5.1 0.1 17.2 14.2 31.3 31.5 31.3 17.4 0 31.5-14.1 31.5-31.5 0-0.9-0.1-2.1-0.2-3.1v-1c0-2.3 0.1-4.2 0.1-6z" p-id="3177"></path></svg>