<?xml version="1.0" standalone="no"?><!DOCTYPE svg PUBLIC "-//W3C//DTD SVG 1.1//EN" "http://www.w3.org/Graphics/SVG/1.1/DTD/svg11.dtd"><svg t="1614843103891" class="icon" viewBox="0 0 1024 1024" version="1.1" xmlns="http://www.w3.org/2000/svg" p-id="3017" xmlns:xlink="http://www.w3.org/1999/xlink" width="200" height="200"><defs><style type="text/css"></style></defs><path d="M231.849057 231.849057h96.603773v96.603773h-96.603773zM347.773585 231.849057h96.603773v96.603773h-96.603773zM463.698113 231.849057h96.603774v96.603773h-96.603774zM579.622642 231.849057h96.603773v96.603773h-96.603773zM695.54717 231.849057h96.603773v96.603773h-96.603773zM231.849057 347.773585h96.603773v96.603773h-96.603773zM0 231.849057h96.603774v96.603773H0zM115.924528 231.849057h96.603774v96.603773H115.924528zM927.396226 231.849057h96.603774v96.603773h-96.603774zM811.471698 231.849057h96.603774v96.603773h-96.603774zM115.924528 347.773585h96.603774v96.603773H115.924528zM347.773585 347.773585h96.603773v96.603773h-96.603773zM463.698113 347.773585h96.603774v96.603773h-96.603774zM579.622642 347.773585h96.603773v96.603773h-96.603773zM695.54717 347.773585h96.603773v96.603773h-96.603773zM231.849057 463.698113h96.603773v96.603774h-96.603773zM347.773585 463.698113h96.603773v96.603774h-96.603773zM463.698113 463.698113h96.603774v96.603774h-96.603774zM579.622642 463.698113h96.603773v96.603774h-96.603773zM695.54717 463.698113h96.603773v96.603774h-96.603773zM347.773585 579.622642h96.603773v96.603773h-96.603773zM463.698113 579.622642h96.603774v96.603773h-96.603774zM579.622642 579.622642h96.603773v96.603773h-96.603773zM463.698113 695.54717h96.603774v96.603773h-96.603774zM811.471698 347.773585h96.603774v96.603773h-96.603774z" fill="#fce518" p-id="3018"></path></svg>