<svg t="1611888430218" class="icon" viewBox="0 0 1024 1024" version="1.1"
    xmlns="http://www.w3.org/2000/svg" p-id="16051" width="200" height="200">
    <path d="M0 0h1024v1024H0z" fill="#0954ad" fill-opacity="0" p-id="16052"></path>
    <path d="M61.0304 937.08288h335.872v51.2H61.0304zM521.8304 937.08288h364.544v51.2h-364.544zM595.5584 195.70688l210.944 210.944-460.8 460.8-210.944-210.944zM681.5744 111.73888l210.944 210.944-63.488 61.44-210.944-210.944z" fill="#0954ad" p-id="16053"></path>
    <path d="M118.3744 681.08288l210.944 208.896-296.96 79.872zM761.4464 111.73888l131.072 131.072c22.528 22.528 22.528 57.344 0 79.872s-63.488 22.528-79.872 0l-131.072-131.072c-22.528-22.528-22.528-57.344 0-79.872s63.488-22.528 79.872 0z" fill="#0954ad" p-id="16054"></path>
</svg>