<?xml version="1.0" standalone="no"?><!DOCTYPE svg PUBLIC "-//W3C//DTD SVG 1.1//EN" "http://www.w3.org/Graphics/SVG/1.1/DTD/svg11.dtd"><svg t="1612231779283" class="icon" viewBox="0 0 1024 1024" version="1.1" xmlns="http://www.w3.org/2000/svg" p-id="8258" xmlns:xlink="http://www.w3.org/1999/xlink" width="200" height="200"><defs><style type="text/css"></style></defs><path d="M0.130375 512.390343A511.869886 511.869886 0 1 0 511.740032 0 511.609657 511.609657 0 0 0 0.130375 512.390343z" fill="#FFD629" p-id="8259"></path><path d="M952.567478 251.901398a771.578145 771.578145 0 0 1 60.373062 156.13723A511.609657 511.609657 0 0 1 614.270146 1013.070394a502.761881 502.761881 0 0 1-137.400763 9.368234A510.048285 510.048285 0 0 1 260.359091 957.901906S686.3535 628.972808 952.567478 251.901398z" fill="#FF9A2C" opacity=".1" p-id="8260"></path><path d="M997.847274 355.472427C1088.146639 619.864803 933.570781 910.800508 676.725038 996.675985a552.725794 552.725794 0 0 1-225.618297 23.680813s203.238628-18.996696 382.536213-232.644473c189.186277-226.398983 161.602033-440.04676 164.20432-432.239898z" fill="#FF9A2C" opacity=".2" p-id="8261"></path><path d="M836.50547 112.679034A509.267598 509.267598 0 0 0 646.278278 18.476239a507.185769 507.185769 0 0 0-366.662262 38.51385C109.686664 139.482592-13.14129 356.773571 1.951976 546.480305a534.770013 534.770013 0 0 0 36.692249 177.475985 2.862516 2.862516 0 0 0 3.382973 1.301143 1797.659975 1797.659975 0 0 0 458.26277-233.425159c260.228717-193.349936 356.513342-361.717916 336.215502-379.15324z" fill="#FCE99A" opacity=".24" p-id="8262"></path><path d="M560.923259 286.251588A64.276493 64.276493 0 1 0 624.679295 221.454638 64.536722 64.536722 0 0 0 560.923259 286.251588zM338.427706 422.611436l-94.723253 152.754257-18.996696-9.888692A39.554765 39.554765 0 0 1 208.313348 512.130114l31.227446-57.770775-55.688945-23.941042a39.034307 39.034307 0 0 1-16.654638-52.045743l9.888691-19.517154z" fill="#211715" p-id="8263"></path><path d="M608.284885 472.835578c33.569504 68.96061 17.175095 145.728081-36.171791 171.750953s-123.868869-8.847776-157.438374-78.068615l37.472935-9.628462a353.650826 353.650826 0 0 0 125.430242-60.89352z" fill="#F94616" p-id="8264"></path><path d="M500.289968 579.789581l10.929606 7.286404a14.312579 14.312579 0 0 0 14.833037 0l32.788818-17.175096a14.052351 14.052351 0 0 0 7.546633-10.929606l1.821601-12.751207a14.572808 14.572808 0 0 0-21.859212-14.572808 288.593647 288.593647 0 0 1-43.197967 21.598984 14.572808 14.572808 0 0 0-2.862516 26.543329z" fill="#E53600" opacity=".68" p-id="8265"></path><path d="M997.847274 355.472427C1088.146639 619.864803 933.570781 910.800508 676.725038 996.675985a552.725794 552.725794 0 0 1-225.618297 23.680813s149.891741-55.949174 335.695044-263.871919c196.212452-220.413723 208.443202-408.819314 211.045489-401.012452z" fill="#FF9A2C" opacity=".19" p-id="8266"></path><path d="M997.847274 355.472427C1088.146639 619.864803 933.570781 910.800508 676.725038 996.675985a552.725794 552.725794 0 0 1-225.618297 23.680813s109.816518-104.091487 295.619822-312.27446a1786.990597 1786.990597 0 0 0 251.120711-352.609911z" fill="#FF9A2C" opacity=".15" p-id="8267"></path></svg>