<?xml version="1.0" standalone="no"?><!DOCTYPE svg PUBLIC "-//W3C//DTD SVG 1.1//EN" "http://www.w3.org/Graphics/SVG/1.1/DTD/svg11.dtd"><svg t="1623403412275" class="icon" viewBox="0 0 1024 1024" version="1.1" xmlns="http://www.w3.org/2000/svg" p-id="720" xmlns:xlink="http://www.w3.org/1999/xlink" width="200" height="200"><defs><style type="text/css"></style></defs><path d="M366.4 726.4s-225.6-64-145.6-241.6c0 0 27.2-36.8 35.2-68.8 9.6-38.4-1.6-84.8-1.6-84.8s-17.6-84.8 120-174.4c54.4-35.2 256-94.4 344 80 0 0 33.6 54.4 22.4 124.8-3.2 22.4 6.4 46.4 46.4 80 12.8 9.6 68.8 70.4 27.2 176-14.4 28.8-67.2 113.6-75.2 152-4.8 22.4-4.8 89.6-4.8 89.6H356.8l9.6-132.8z" fill="#E95573" p-id="721"></path><path d="M523.2 118.4v32c76.8 0 132.8 33.6 166.4 100.8v3.2s27.2 44.8 19.2 102.4c-4.8 38.4 12.8 70.4 57.6 108.8 0 0 54.4 46.4 19.2 139.2-4.8 8-12.8 22.4-20.8 38.4-28.8 51.2-51.2 91.2-57.6 118.4-3.2 14.4-4.8 43.2-4.8 65.6H392l6.4-96L400 704l-25.6-6.4c-1.6 0-99.2-30.4-131.2-96-14.4-28.8-12.8-60.8 3.2-99.2 8-11.2 30.4-44.8 38.4-76.8 9.6-43.2 0-91.2-1.6-97.6 0-4.8-6.4-68.8 105.6-142.4 19.2-12.8 73.6-33.6 131.2-33.6l3.2-33.6m0 0c-64 0-123.2 22.4-148.8 38.4-137.6 89.6-120 174.4-120 174.4s9.6 46.4 1.6 84.8c-8 32-35.2 68.8-35.2 68.8-80 177.6 145.6 241.6 145.6 241.6l-9.6 131.2h377.6s-1.6-68.8 4.8-89.6c9.6-36.8 62.4-121.6 75.2-152 40-105.6-16-166.4-27.2-176-40-33.6-48-57.6-46.4-80 11.2-70.4-22.4-124.8-22.4-124.8-46.4-89.6-124.8-116.8-195.2-116.8z" fill="#322E2C" p-id="722"></path><path d="M832 905.6c-11.2-148.8-150.4-220.8-320-220.8s-308.8 70.4-320 220.8h640z" fill="#6C73CA" p-id="723"></path><path d="M512 716.8c81.6 0 152 17.6 201.6 49.6 41.6 27.2 68.8 62.4 80 107.2H228.8c11.2-44.8 38.4-80 80-107.2 51.2-32 121.6-49.6 203.2-49.6m0-32c-169.6 0-308.8 70.4-320 220.8h640c-11.2-148.8-150.4-220.8-320-220.8z" fill="#322E2C" p-id="724"></path><path d="M588.8 700.8l-80 48-78.4-48 8-115.2h140.8z" fill="#FFEDEB" p-id="725"></path><path d="M564.8 601.6l6.4 88-60.8 36.8-62.4-36.8 6.4-88h110.4m28.8-32H424l-9.6 137.6 94.4 57.6 94.4-57.6-9.6-137.6z" fill="#322E2C" p-id="726"></path><path d="M686.4 440c0 72-72 228.8-177.6 228.8s-177.6-150.4-177.6-222.4 14.4-233.6 177.6-233.6 177.6 156.8 177.6 227.2z" fill="#FFEDEB" p-id="727"></path><path d="M372.8 307.2h272l24 75.2h-320z" fill="#6C73CA" p-id="728"></path><path d="M510.4 244.8c96 0 144 65.6 144 193.6 0 57.6-62.4 196.8-145.6 196.8-83.2 0-145.6-132.8-145.6-190.4 1.6-131.2 49.6-200 147.2-200m0-32c-163.2 0-177.6 163.2-177.6 233.6 0 72 72 222.4 177.6 222.4S688 510.4 688 440c-1.6-70.4-14.4-227.2-177.6-227.2z" fill="#322E2C" p-id="729"></path><path d="M366.4 286.4s49.6 9.6 99.2-32c25.6-1.6 112 32 142.4 91.2 22.4 41.6 16 75.2 48 94.4-6.4 78.4-9.6 128-9.6 128l84.8-96-72-209.6-134.4-78.4-161.6 49.6 3.2 52.8z" fill="#E95573" p-id="730"></path><path d="M643.2 571.2l-28.8-14.4s35.2-67.2 36.8-118.4c-22.4-16-30.4-46.4-36.8-68.8-1.6-8-3.2-14.4-6.4-17.6-27.2-59.2-97.6-80-128-88-46.4 38.4-100.8 54.4-104 56l-9.6-30.4s56-16 97.6-54.4l6.4-6.4 8 3.2c1.6 0 4.8 1.6 8 3.2 35.2 9.6 115.2 33.6 148.8 107.2 3.2 6.4 4.8 14.4 8 22.4 4.8 19.2 12.8 46.4 28.8 52.8l9.6 3.2v9.6c4.8 59.2-36.8 137.6-38.4 140.8z" fill="#322E2C" p-id="731"></path></svg>