<svg t="1613635649317" class="icon" viewBox="0 0 1872 1024" version="1.1"
    xmlns="http://www.w3.org/2000/svg" p-id="5846" width="200" height="200">
    <path d="M1787.42857156 512C1787.42857156 776.13714313 1540.57142844 992 1238.85714312 992H580.57142844C278.85714313 992 32 776.13714313 32 512S278.85714313 32 580.57142844 32h658.28571469c301.71428531 0 548.57142844 216.13714313 548.57142843 480z" fill="#EBECEE" p-id="5847"></path>
    <path d="M525.71428531 512m-96 0a96 96 0 1 0 192 0 96 96 0 1 0-192 0Z" fill="#1296db" p-id="5848" data-spm-anchor-id="a313x.7781069.0.i3" class="selected"></path>
    <path d="M909.71428531 512m-96 0a96 96 0 1 0 192 0 96 96 0 1 0-192 0Z" fill="#1296db" p-id="5849" data-spm-anchor-id="a313x.7781069.0.i4" class="selected"></path>
    <path d="M1293.71428531 512m-96 0a96 96 0 1 0 192 0 96 96 0 1 0-192 0Z" fill="#1296db" p-id="5850" data-spm-anchor-id="a313x.7781069.0.i5" class="selected"></path>
</svg>