<?xml version="1.0" standalone="no"?><!DOCTYPE svg PUBLIC "-//W3C//DTD SVG 1.1//EN" "http://www.w3.org/Graphics/SVG/1.1/DTD/svg11.dtd"><svg t="1610592973109" class="icon" viewBox="0 0 1024 1024" version="1.1" xmlns="http://www.w3.org/2000/svg" p-id="9447" xmlns:xlink="http://www.w3.org/1999/xlink" width="200" height="200"><defs><style type="text/css"></style></defs><path d="M837 588.45V339.84c0-20.31-16.74-36.84-37.29-36.84H296.29c-20.55 0-37.29 16.53-37.29 36.84v497.32c0 20.31 16.74 36.84 37.29 36.84h226.76z" fill="#E65751" p-id="9448"></path><path d="M259 836.89a35.11 35.11 0 0 0 18 5.11h523V323C678.83 701 500.22 791.74 259 836.89z" fill="#F09063" p-id="9449"></path><path d="M225.24 306.88v-4.41a38.24 38.24 0 0 1 38.24-38.24H366L435.53 226H263.47A76.47 76.47 0 0 0 187 302.47v19.12z m0-4.41a38.24 38.24 0 0 1 38.24-38.24H366L435.53 226H263.47A76.47 76.47 0 0 0 187 302.47v19.12l38.24-14.71zM187 512.76h38.24v286.77a38.24 38.24 0 0 0 38.24 38.24h497.05a38.24 38.24 0 0 0 38.24-38.24V302.47a38.24 38.24 0 0 0-38.24-38.24H627.88V226h132.65A76.47 76.47 0 0 1 837 302.47v497.06A76.47 76.47 0 0 1 760.53 876H263.47A76.47 76.47 0 0 1 187 799.53z m0 0a19 19 0 0 1 38 0h0.24v286.77a38.24 38.24 0 0 0 38.24 38.24h497.05a38.24 38.24 0 0 0 38.24-38.24V302.47a38.24 38.24 0 0 0-38.24-38.24H627.88V226h132.65A76.47 76.47 0 0 1 837 302.47v497.06A76.47 76.47 0 0 1 760.53 876H263.47A76.47 76.47 0 0 1 187 799.53V512.76zM192.49 298L206 284.36a11.1 11.1 0 0 1 19 7.81V323a19 19 0 0 1-38 0v-11.62a19 19 0 0 1 5.49-13.38zM206 380a19 19 0 0 1 19 19v38a19 19 0 0 1-19 19 19 19 0 0 1-19-19v-38a19 19 0 0 1 19-19z" fill="#3E3A39" p-id="9450"></path><path d="M167 875h689a19 19 0 0 1 19 19 19 19 0 0 1-19 19H167a19 19 0 0 1-19-19 19 19 0 0 1 19-19zM53 875h38a19 19 0 0 1 19 19 19 19 0 0 1-19 19H53a19 19 0 0 1-19-19 19 19 0 0 1 19-19zM933 875h38a19 19 0 0 1 19 19 19 19 0 0 1-19 19h-38a19 19 0 0 1-19-19 19 19 0 0 1 19-19zM397 456h268a19 19 0 0 1 19 19 19 19 0 0 1-19 19H397a19 19 0 0 1-19-19 19 19 0 0 1 19-19zM397 571h230a19 19 0 0 1 19 19 19 19 0 0 1-19 19H397a19 19 0 0 1-19-19 19 19 0 0 1 19-19zM397 685h230a19 19 0 0 1 19 19 19 19 0 0 1-19 19H397a19 19 0 0 1-19-19 19 19 0 0 1 19-19z" fill="#3E3A39" p-id="9451"></path><path d="M359 213.13v50.24A19.64 19.64 0 0 0 378.68 283h273.64A19.64 19.64 0 0 0 672 263.37v-50.24a19.64 19.64 0 0 0-19.68-19.63h-58.49a11.49 11.49 0 0 1-8.36-3.62 11.28 11.28 0 0 1-3.19-8.56l0.11-2.63a66.84 66.84 0 0 0-133.69 0l0.11 2.63a11.45 11.45 0 0 1-11.54 12h-58.6A20 20 0 0 0 359 213.13z" fill="#F09063" p-id="9452"></path><path d="M648.32 178.5A34.64 34.64 0 0 1 683 213.13v50.24A34.64 34.64 0 0 1 648.32 298H374.68A34.64 34.64 0 0 1 340 263.37v-50.24a35 35 0 0 1 34.38-34.85h55.34a81.84 81.84 0 0 1 163.69 0.22zM370 213.13v50.24a4.64 4.64 0 0 0 4.68 4.63h273.64a4.64 4.64 0 0 0 4.68-4.63v-50.24a4.64 4.64 0 0 0-4.68-4.63h-58.49a26.64 26.64 0 0 1-26.52-28l0.09-2.14a51.84 51.84 0 0 0-103.69 0l0.1 2.3a26.45 26.45 0 0 1-26.53 27.58h-58.4a5 5 0 0 0-4.88 4.89z" fill="#3E3A39" p-id="9453"></path><path d="M309 404a10 10 0 0 1-10-9.93v-23.14a10 10 0 0 1 20 0v23.14a10 10 0 0 1-10 9.93z" fill="#FFFFFF" p-id="9454"></path><path d="M309 569a9.91 9.91 0 0 1-10-9.8V446.8a10 10 0 0 1 20 0v112.4a9.91 9.91 0 0 1-10 9.8z" fill="#FFFFFF" p-id="9455"></path></svg>