<?xml version="1.0" standalone="no"?><!DOCTYPE svg PUBLIC "-//W3C//DTD SVG 1.1//EN" "http://www.w3.org/Graphics/SVG/1.1/DTD/svg11.dtd"><svg t="1616052197714" class="icon" viewBox="0 0 1024 1024" version="1.1" xmlns="http://www.w3.org/2000/svg" p-id="2672" id="mx_n_1616052197716" xmlns:xlink="http://www.w3.org/1999/xlink" width="200" height="200"><defs><style type="text/css"></style></defs><path d="M511.35488 131.9936s238.19264-198.7584 450.56 40.96c0 0 140.17536 152.33024-10.24 378.88l-409.6 409.6s-22.20032 33.792-61.44 0l-430.08-430.08s-107.04896-188.5184 0-348.16c0 0 182.85568-267.70432 460.8-51.2z" p-id="2673" data-spm-anchor-id="a313x.7781069.0.i15" class=""></path><path d="M132.47488 387.9936a18.72896 18.72896 0 0 0 20.48-20.48s-6.33856-164.63872 163.84-163.84c0 0 20.48-4.32128 20.48-20.48s-20.48-20.48-20.48-20.48-204.46208-8.81664-204.8 204.8c0 0 2.95936 20.48 20.48 20.48z" fill="#ffffff" p-id="2674" data-spm-anchor-id="a313x.7781069.0.i16" class="selected"></path></svg>