<svg t="1615969228475" class="icon" viewBox="0 0 1024 1024" version="1.1"
    xmlns="http://www.w3.org/2000/svg" p-id="4378" width="200" height="200">
    <path d="M512 960.1C264.5 960.1 63.9 759.5 63.9 512S264.5 63.9 512 63.9 960.1 264.5 960.1 512 759.5 960.1 512 960.1z m273.9-746.9c-96.2 0-174.3 78-174.3 174.3v249c0 68.8-55.7 124.5-124.5 124.5s-124.5-55.7-124.5-124.5v-139l92.4 77.6 32-38.1-149.8-125.9-149.9 125.8 32 38.1 93.5-78.4v139.9c0 96.2 78 174.3 174.3 174.3 96.2 0 174.3-78 174.3-174.3v-249c0-68.7 55.7-124.5 124.5-124.5h24.9l-24.9-49.8z" fill="#ffffff" p-id="4379"></path>
</svg>