<?xml version="1.0" standalone="no"?><!DOCTYPE svg PUBLIC "-//W3C//DTD SVG 1.1//EN" "http://www.w3.org/Graphics/SVG/1.1/DTD/svg11.dtd"><svg t="1615347162011" class="icon" viewBox="0 0 1024 1024" version="1.1" xmlns="http://www.w3.org/2000/svg" p-id="2918" xmlns:xlink="http://www.w3.org/1999/xlink" width="200" height="200"><defs><style type="text/css"></style></defs><path d="M512 46.4c0 18.3 15.2 32.8 33.4 32.2 5.9-0.2 11.9-0.3 17.9-0.3 129.2 0 247.3 47.9 337.4 126.9 4.4 3.9 10.5-2.1 6.8-6.6-87.3-105.4-216-175.1-361.1-184.4-18.6-1.1-34.4 13.5-34.4 32.2z m0 931.3c0-18.3-15.2-32.8-33.4-32.2-5.9 0.2-11.9 0.3-17.9 0.3-129.2 0-247.3-47.9-337.4-126.9-4.4-3.9-10.5 2.1-6.8 6.6 87.3 105.2 216 174.9 361.1 184.2 18.6 1.3 34.4-13.4 34.4-32z" p-id="2919" fill="#5B5777"></path></svg>