<svg t="1618390484602" class="icon" viewBox="0 0 1137 1024" version="1.1" xmlns="http://www.w3.org/2000/svg" p-id="16993" width="200" height="200"><path d="M170.666667 284.444444H56.888889a56.888889 56.888889 0 1 1 0-113.777777h113.777778v113.777777z m910.222222 0H625.777778V170.666667h455.111111a56.888889 56.888889 0 1 1 0 113.777777zM455.111111 0h-113.777778a56.888889 56.888889 0 0 0-56.888889 56.888889v341.333333a56.888889 56.888889 0 0 0 56.888889 56.888889h113.777778a56.888889 56.888889 0 0 0 56.888889-56.888889V56.888889a56.888889 56.888889 0 0 0-56.888889-56.888889z m341.333333 568.888889h-113.777777a56.888889 56.888889 0 0 0-56.888889 56.888889v341.333333a56.888889 56.888889 0 0 0 56.888889 56.888889h113.777777a56.888889 56.888889 0 0 0 56.888889-56.888889V625.777778a56.888889 56.888889 0 0 0-56.888889-56.888889z m284.444445 284.444444h-113.777778v-113.777777h113.777778a56.888889 56.888889 0 0 1 0 113.777777z m-568.888889 0H56.888889a56.888889 56.888889 0 1 1 0-113.777777h455.111111v113.777777z" fill="#ffffff" p-id="16994"></path></svg>