<svg t="1615969205061" class="icon" viewBox="0 0 1024 1024" version="1.1"
    xmlns="http://www.w3.org/2000/svg" p-id="4173" width="200" height="200">
    <path d="M903.4 120.8H121c-30.9 0-55.9 25-55.9 55.9v475c0 30.9 25 55.9 55.9 55.9h111.8v195.6l43.9-1.5 162.9-194.1h463.8c30.9 0 55.9-25 55.9-55.9v-475c0-30.9-25-55.9-55.9-55.9zM288.7 456.1c-30.9 0-55.9-25-55.9-55.9s25-55.9 55.9-55.9 55.9 25 55.9 55.9-25 55.9-55.9 55.9z m223.5 0c-30.9 0-55.9-25-55.9-55.9s25-55.9 55.9-55.9 55.9 25 55.9 55.9-25 55.9-55.9 55.9z m223.6 0c-30.9 0-55.9-25-55.9-55.9s25-55.9 55.9-55.9 55.9 25 55.9 55.9-25 55.9-55.9 55.9z" fill="#ffffff" p-id="4174"></path>
</svg>