<svg t="1616051825465" class="icon" viewBox="0 0 1024 1024" version="1.1"
    xmlns="http://www.w3.org/2000/svg" p-id="10821" data-spm-anchor-id="a313x.7781069.0.i33" width="200" height="200">
    <path d="M0 107.3664m102.4 0l819.2 0q102.4 0 102.4 102.4l0 491.52q0 102.4-102.4 102.4l-819.2 0q-102.4 0-102.4-102.4l0-491.52q0-102.4 102.4-102.4Z" p-id="10822" data-spm-anchor-id="a313x.7781069.0.i27" class="" fill="#ffffff"></path>
    <path d="M402.69824 752.4864H621.056c10.1376 0 17.7152 7.9872 11.776 15.7696-4.8128 6.3488-100.7616 132.096-108.9536 142.848a15.96416 15.96416 0 0 1-23.68512 0c-6.02112-7.68-102.49216-134.0416-109.18912-143.1552-4.95616-6.656 0.512-15.4624 11.69408-15.4624z" p-id="10823" data-spm-anchor-id="a313x.7781069.0.i29" class="" fill="#ffffff"></path>
    <path d="M266.24 455.5264m-61.44 0a61.44 61.44 0 1 0 122.88 0 61.44 61.44 0 1 0-122.88 0Z" fill="#2c2c2c" p-id="10824" data-spm-anchor-id="a313x.7781069.0.i30" class=""></path>
    <path d="M512 455.5264m-61.44 0a61.44 61.44 0 1 0 122.88 0 61.44 61.44 0 1 0-122.88 0Z" fill="#2c2c2c" p-id="10825" data-spm-anchor-id="a313x.7781069.0.i31" class=""></path>
    <path d="M757.76 455.5264m-61.44 0a61.44 61.44 0 1 0 122.88 0 61.44 61.44 0 1 0-122.88 0Z" fill="#2c2c2c" p-id="10826" data-spm-anchor-id="a313x.7781069.0.i32" class=""></path>
</svg>