<svg t="1623927745384" class="icon" viewBox="0 0 1024 1024" version="1.1" xmlns="http://www.w3.org/2000/svg" p-id="1058" data-spm-anchor-id="a313x.7781069.0.i1" width="200" height="200"><path d="M875.4 495.9H736.8c-46.2 0-84.7-38.5-84.7-84.7v-42.3c0-46.2 38.5-84.7 84.7-84.7h138.6c46.2 0 84.7 38.5 84.7 84.7v42.3c0 46.2-38.5 84.7-84.7 84.7zM287.2 744.1H148.6c-46.2 0-84.7-38.5-84.7-84.7V617c0-46.2 38.5-84.7 84.7-84.7h138.6c46.2 0 84.7 38.5 84.7 84.7v42.3c-0.1 46.3-38.5 84.8-84.7 84.8z" fill="#2c2c2c" p-id="1059" data-spm-anchor-id="a313x.7781069.0.i0" class=""></path><path d="M761.9 491.6H623.3c-46.2 0-84.7-38.5-84.7-84.7v-42.3c0-46.2 38.5-84.7 84.7-84.7h138.6c46.2 0 84.7 38.5 84.7 84.7V407c0 46.1-38.5 84.6-84.7 84.6zM623.3 318.4c-25 0-46.2 21.2-46.2 46.2V407c0 25 21.2 46.2 46.2 46.2h138.6c25 0 46.2-21.2 46.2-46.2v-42.3c0-25-21.2-46.2-46.2-46.2H623.3zM415.5 491.6H276.9c-46.2 0-84.7-38.5-84.7-84.7v-42.3c0-46.2 38.5-84.7 84.7-84.7h138.6c46.2 0 84.7 38.5 84.7 84.7V407c-0.1 46.1-38.5 84.6-84.7 84.6zM276.9 318.4c-25 0-46.2 21.2-46.2 46.2V407c0 25 21.2 46.2 46.2 46.2h138.6c25 0 46.2-21.2 46.2-46.2v-42.3c0-25-21.2-46.2-46.2-46.2H276.9z m138.6 423.4H276.9c-46.2 0-84.7-38.5-84.7-84.7v-42.3c0-46.2 38.5-84.7 84.7-84.7h138.6c46.2 0 84.7 38.5 84.7 84.7v42.3c-0.1 46.2-38.5 84.7-84.7 84.7zM276.9 568.6c-25 0-46.2 21.2-46.2 46.2v42.3c0 25 21.2 46.2 46.2 46.2h138.6c25 0 46.2-21.2 46.2-46.2v-42.3c0-25-21.2-46.2-46.2-46.2H276.9z m485 173.2H623.3c-46.2 0-84.7-38.5-84.7-84.7v-42.3c0-46.2 38.5-84.7 84.7-84.7h138.6c46.2 0 84.7 38.5 84.7 84.7v42.3c0 46.2-38.5 84.7-84.7 84.7zM623.3 568.6c-25 0-46.2 21.2-46.2 46.2v42.3c0 25 21.2 46.2 46.2 46.2h138.6c25 0 46.2-21.2 46.2-46.2v-42.3c0-25-21.2-46.2-46.2-46.2H623.3z m0 0" fill="#ffffff" p-id="1060" data-spm-anchor-id="a313x.7781069.0.i2" class="selected"></path></svg>