<svg t="1617696507136" class="icon" viewBox="0 0 1024 1024" version="1.1"
    xmlns="http://www.w3.org/2000/svg" p-id="29163" width="200" height="200">
    <path d="M512 1023.941821a149.111528 149.111528 0 0 1-148.995171-148.936992s0.872678-24.842225 22.573263-24.842225h252.262031c22.747798 0 23.271405 24.842225 23.271405 25.074939a149.053349 149.053349 0 0 1-149.111528 148.704278z m310.207829-206.475541h-620.473837a86.860519 86.860519 0 0 1-37.234248-165.343332v-206.882791a348.082041 348.082041 0 0 1 324.926993-346.802114 203.624794 203.624794 0 0 0 336.155446 196.75973 344.300437 344.300437 0 0 1 33.918073 150.042384v206.940969a86.860519 86.860519 0 0 1-37.292427 165.343333z" p-id="29164" data-spm-anchor-id="a313x.7781069.0.i47" class="selected" fill="#e6e6e6"></path>
    <path d="M687.582751 145.446281m-145.446281 0a145.446281 145.446281 0 1 0 290.892562 0 145.446281 145.446281 0 1 0-290.892562 0Z" p-id="29165" data-spm-anchor-id="a313x.7781069.0.i48" class="selected" fill="#e6e6e6"></path>
</svg>