<svg t="1614328005003" class="icon" viewBox="0 0 1024 1024" version="1.1"
    xmlns="http://www.w3.org/2000/svg" p-id="10243" width="200" height="200">
    <path d="M71.168 576.512l148.48 151.552c34.816 35.84 104.448 65.536 154.624 66.048l504.32 4.608c50.176 0.512 91.648-39.936 91.648-90.112l3.584-375.808c0.512-50.176-39.936-91.648-90.112-91.648l-504.32-4.608c-50.176-0.512-120.32 27.648-156.16 62.976L71.68 448c-34.816 34.816-35.328 92.672-0.512 128.512zM372.736 450.56c35.328 35.84 34.816 93.696-1.024 128.512-35.84 35.328-93.696 34.816-128.512-1.024s-34.816-93.696 1.024-128.512S337.92 414.72 372.736 450.56z" fill="#fce518" p-id="10244"></path>
</svg>