<svg t="1623913884719" class="icon" viewBox="0 0 1024 1024" version="1.1" xmlns="http://www.w3.org/2000/svg" p-id="2502" data-spm-anchor-id="a313x.7781069.0.i15" width="200" height="200"><path d="M512 958.2C266 958.2 65.8 758.1 65.8 512 65.8 266 266 65.8 512 65.8S958.2 266 958.2 512c0 246.1-200.1 446.2-446.2 446.2z m0-841.6C294 116.6 116.6 294 116.6 512c0 218 177.4 395.4 395.4 395.4 218 0 395.4-177.4 395.4-395.4 0-218-177.4-395.4-395.4-395.4z" fill="#ffffff" p-id="2503" data-spm-anchor-id="a313x.7781069.0.i13" class=""></path><path d="M511.4 655.5c0 26.4-21.4 47.8-47.8 47.8s-47.8-21.4-47.8-47.8v-287c0-26.4 21.4-47.8 47.8-47.8s47.8 21.4 47.8 47.8v287zM678.4 655.5c0 26.4-21.4 47.8-47.8 47.8s-47.8-21.4-47.8-47.8v-287c0-26.4 21.4-47.8 47.8-47.8s47.8 21.4 47.8 47.8v287z" fill="#2c2c2c" p-id="2504" data-spm-anchor-id="a313x.7781069.0.i16" class="selected"></path><path d="M595.5 679.1c-14.6 0-26.5-9.8-26.5-21.9V366.8c0-12.1 11.9-21.9 26.5-21.9s26.5 9.8 26.5 21.9v290.4c0 12.1-11.9 21.9-26.5 21.9z m-167 0c-14.6 0-26.5-9.8-26.5-21.9V366.8c0-12.1 11.9-21.9 26.5-21.9s26.5 9.8 26.5 21.9v290.4c0 12.1-11.9 21.9-26.5 21.9z" fill="#ffffff" p-id="2505" data-spm-anchor-id="a313x.7781069.0.i14" class=""></path></svg>