<svg t="1623574448174" class="icon" viewBox="0 0 1024 1024" version="1.1" xmlns="http://www.w3.org/2000/svg" p-id="856" width="200" height="200"><path d="M508.8 510.4m-464 0a464 464 0 1 0 928 0 464 464 0 1 0-928 0Z" fill="#FFF100" p-id="857"></path><path d="M913.6 769.6c-4.8 0-11.2-1.6-16-4.8-16-8-20.8-28.8-12.8-43.2 36.8-64 56-137.6 56-212.8 0-238.4-193.6-432-432-432-86.4 0-171.2 25.6-241.6 73.6-14.4 9.6-35.2 6.4-44.8-8-9.6-14.4-6.4-35.2 8-44.8C312 41.6 409.6 12.8 508.8 12.8c273.6 0 496 222.4 496 496 0 84.8-22.4 169.6-64 243.2-4.8 12.8-16 17.6-27.2 17.6zM508.8 1006.4c-273.6 0-496-222.4-496-496 0-89.6 24-177.6 68.8-252.8 9.6-14.4 28.8-20.8 43.2-11.2 14.4 9.6 20.8 28.8 11.2 43.2-38.4 65.6-59.2 142.4-59.2 220.8 0 238.4 193.6 432 432 432 81.6 0 160-22.4 228.8-65.6 14.4-9.6 35.2-4.8 44.8 9.6s4.8 35.2-9.6 44.8c-80 49.6-171.2 75.2-264 75.2z" fill="" p-id="858"></path><path d="M163.2 177.6m-48 0a48 48 0 1 0 96 0 48 48 0 1 0-96 0Z" fill="" p-id="859"></path><path d="M854.4 841.6m-48 0a48 48 0 1 0 96 0 48 48 0 1 0-96 0Z" fill="" p-id="860"></path><path d="M392 300.8l363.2 209.6L392 720z" fill="" p-id="861"></path></svg>