<svg t="1623574459891" class="icon" viewBox="0 0 1024 1024" version="1.1" xmlns="http://www.w3.org/2000/svg" p-id="999" width="200" height="200"><path d="M512 512m-464 0a464 464 0 1 0 928 0 464 464 0 1 0-928 0Z" fill="#FFF100" p-id="1000"></path><path d="M512 1008c-84.8 0-169.6-22.4-243.2-64-16-8-20.8-28.8-12.8-43.2 8-16 28.8-20.8 43.2-12.8 64 36.8 137.6 56 212.8 56 238.4 0 432-193.6 432-432 0-86.4-25.6-171.2-73.6-241.6-9.6-14.4-6.4-35.2 8-44.8 14.4-9.6 35.2-6.4 44.8 8C979.2 315.2 1008 412.8 1008 512c1.6 273.6-222.4 496-496 496z" fill="" p-id="1001"></path><path d="M352 644.8V398.4c0-19.2 16-35.2 35.2-35.2h251.2c19.2 0 35.2 16 35.2 35.2v244.8c0 19.2-16 35.2-35.2 35.2H387.2c-19.2 1.6-35.2-14.4-35.2-33.6z" fill="" p-id="1002"></path><path d="M638.4 688H387.2c-24 0-43.2-19.2-43.2-43.2V398.4c0-24 19.2-43.2 43.2-43.2h251.2c24 0 43.2 19.2 43.2 43.2v244.8c0 25.6-19.2 44.8-43.2 44.8zM387.2 371.2c-16 0-27.2 12.8-27.2 27.2v244.8c0 16 12.8 27.2 27.2 27.2h251.2c16 0 27.2-12.8 27.2-27.2V398.4c0-16-12.8-27.2-27.2-27.2H387.2z" fill="" p-id="1003"></path><path d="M844.8 166.4m-48 0a48 48 0 1 0 96 0 48 48 0 1 0-96 0Z" fill="" p-id="1004"></path><path d="M105.6 800c-11.2 0-20.8-4.8-27.2-14.4C28.8 707.2 3.2 616 3.2 523.2c0-273.6 222.4-496 496-496C588.8 27.2 676.8 51.2 752 96c14.4 9.6 20.8 28.8 11.2 43.2-8 16-27.2 20.8-43.2 12.8-65.6-40-142.4-60.8-220.8-60.8-238.4 0-432 193.6-432 432 0 81.6 22.4 160 65.6 228.8 9.6 14.4 4.8 35.2-9.6 44.8-6.4 1.6-12.8 3.2-17.6 3.2z" fill="" p-id="1005"></path></svg>