<?xml version="1.0" standalone="no"?><!DOCTYPE svg PUBLIC "-//W3C//DTD SVG 1.1//EN" "http://www.w3.org/Graphics/SVG/1.1/DTD/svg11.dtd"><svg t="1612229978810" class="icon" viewBox="0 0 1024 1024" version="1.1" xmlns="http://www.w3.org/2000/svg" p-id="3794" xmlns:xlink="http://www.w3.org/1999/xlink" width="200" height="200"><defs><style type="text/css"></style></defs><path d="M512 112c-220.9 0-400 179.1-400 400s179.1 400 400 400 400-179.1 400-400-179.1-400-400-400z m145.1 206.1c36.3 0 65.8 29.4 65.8 65.8s-29.4 65.8-65.8 65.8-65.8-29.4-65.8-65.8 29.5-65.8 65.8-65.8z m-274.1 0c36.3 0 65.8 29.4 65.8 65.8s-29.4 65.8-65.8 65.8c-36.3 0-65.8-29.4-65.8-65.8s29.5-65.8 65.8-65.8z m359 303.6c-41.1 89.2-129.2 150.8-231.3 150.8-97.5 0-182.2-56.2-225.5-138.9-9.2-17.6-22.6-56 3.6-56H732.4c28.8 0.1 16.1 30.1 9.6 44.1z" fill="#FFCA3E" p-id="3795"></path><path d="M383 383.9m-65.8 0a65.8 65.8 0 1 0 131.6 0 65.8 65.8 0 1 0-131.6 0Z" fill="#CD7300" p-id="3796"></path><path d="M592.166857 394.434755a65.8 65.8 0 1 0 129.902356-21.069838 65.8 65.8 0 1 0-129.902356 21.069838Z" fill="#CD7300" p-id="3797"></path><path d="M732.5 577.7H316.6h-27.7c-26.2 0-12.8 38.4-3.6 56 43.2 82.7 128 138.9 225.5 138.9 102.1 0 190.3-61.7 231.3-150.8 6.4-14.1 19.1-44.1-9.6-44.1z" fill="#C46905" p-id="3798"></path></svg>