<?xml version="1.0" standalone="no"?><!DOCTYPE svg PUBLIC "-//W3C//DTD SVG 1.1//EN" "http://www.w3.org/Graphics/SVG/1.1/DTD/svg11.dtd"><svg t="1611814939497" class="icon" viewBox="0 0 1024 1024" version="1.1" xmlns="http://www.w3.org/2000/svg" p-id="13543" xmlns:xlink="http://www.w3.org/1999/xlink" width="200" height="200"><defs><style type="text/css"></style></defs><path d="M308.143368 0m102.618582 0l-0.057522 0q102.618582 0 102.618582 102.618582l0-0.057521q0 102.618582-102.618582 102.618582l0.057522 0q-102.618582 0-102.618582-102.618582l0 0.057521q0-102.618582 102.618582-102.618582Z" fill="#0061b0" p-id="13544"></path><path d="M726.210551 0h-91.516908a17.256488 17.256488 0 0 0-17.256488 17.256488v253.670374a19.09718 19.09718 0 0 1-19.09718 19.09718h-375.616223a19.09718 19.09718 0 0 1-19.09718-19.09718v-270.811819h-135.751039a68.105606 68.105606 0 0 0-67.933042 67.933041v888.076396a68.105606 68.105606 0 0 0 67.933042 67.933042h888.076395a68.105606 68.105606 0 0 0 67.933042-67.933042v-648.671385a40.265139 40.265139 0 0 0-11.504326-28.358162l-274.090551-274.090551a17.256488 17.256488 0 0 0-12.079542-5.004382z m51.769464 821.351309h-532.362656a40.265139 40.265139 0 0 1-40.265138-40.265139v-229.223683a40.265139 40.265139 0 0 1 40.265138-40.265138h532.362656a40.265139 40.265139 0 0 1 40.265139 40.265138v229.223683a40.265139 40.265139 0 0 1-40.207617 40.265139z" fill="#0061b0" p-id="13545"></path></svg>