<?xml version="1.0" standalone="no"?><!DOCTYPE svg PUBLIC "-//W3C//DTD SVG 1.1//EN" "http://www.w3.org/Graphics/SVG/1.1/DTD/svg11.dtd"><svg t="1617694782110" class="icon" viewBox="0 0 1024 1024" version="1.1" xmlns="http://www.w3.org/2000/svg" p-id="1612" xmlns:xlink="http://www.w3.org/1999/xlink" width="200" height="200"><defs><style type="text/css"></style></defs><path d="M532.945455 439.854545c-18.618182-4.654545-39.563636-4.654545-58.181819 6.981819s-30.254545 27.927273-34.909091 46.545454-4.654545 39.563636 6.981819 55.854546c11.636364 18.618182 27.927273 30.254545 46.545454 34.909091s39.563636 4.654545 58.181818-6.981819 30.254545-27.927273 34.909091-46.545454c6.981818-18.618182 4.654545-39.563636-6.981818-55.854546-11.636364-18.618182-27.927273-30.254545-46.545454-34.909091z" p-id="1613" fill="#e6e6e6"></path><path d="M937.890909 418.909091c-23.272727-23.272727-53.527273-39.563636-90.763636-39.563636 0-6.981818-2.327273-9.309091-4.654546-13.963637-4.654545-11.636364-9.309091-20.945455-16.290909-32.581818-6.981818-9.309091-13.963636-20.945455-20.945454-30.254545-2.327273-2.327273-4.654545-6.981818-9.309091-11.636364 18.618182-30.254545 20.945455-65.163636 11.636363-97.745455-9.309091-32.581818-30.254545-62.836364-62.836363-81.454545s-69.818182-20.945455-102.4-16.290909c-30.254545 11.636364-60.509091 30.254545-79.127273 60.509091-18.618182-2.327273-34.909091-2.327273-51.2 0-16.290909-2.327273-34.909091 0-51.2 2.327272-18.618182-30.254545-48.872727-48.872727-79.127273-58.181818-32.581818-9.309091-69.818182-6.981818-102.4 11.636364S225.745455 160.581818 216.436364 193.163636c-6.981818 30.254545-4.654545 65.163636 11.636363 100.072728-9.309091 13.963636-20.945455 27.927273-27.927272 41.890909-9.309091 13.963636-18.618182 27.927273-23.272728 44.218182-34.909091 0-67.490909 16.290909-90.763636 37.236363C62.836364 442.181818 46.545455 474.763636 46.545455 512c0 34.909091 16.290909 69.818182 41.890909 93.090909 23.272727 23.272727 53.527273 39.563636 90.763636 39.563636 0 6.981818 2.327273 11.636364 4.654545 13.963637 4.654545 9.309091 9.309091 20.945455 16.29091 32.581818 4.654545 11.636364 13.963636 20.945455 20.945454 30.254545 2.327273 4.654545 4.654545 6.981818 9.309091 11.636364-18.618182 30.254545-20.945455 65.163636-11.636364 97.745455 9.309091 32.581818 32.581818 62.836364 62.836364 81.454545 32.581818 18.618182 69.818182 23.272727 102.4 13.963636 32.581818-9.309091 60.509091-30.254545 79.127273-60.50909 16.290909 2.327273 32.581818 2.327273 51.2 2.327272 16.290909 2.327273 34.909091 0 51.2-2.327272 16.290909 30.254545 46.545455 51.2 79.127272 60.50909 32.581818 6.981818 69.818182 4.654545 102.4-13.963636 32.581818-18.618182 53.527273-48.872727 62.836364-81.454545 9.309091-32.581818 6.981818-67.490909-11.636364-97.745455 9.309091-13.963636 20.945455-27.927273 27.927273-41.890909 9.309091-13.963636 16.290909-27.927273 23.272727-44.218182 34.909091 0 67.490909-13.963636 90.763637-37.236363 23.272727-25.6 37.236364-58.181818 37.236363-95.418182 0-37.236364-13.963636-69.818182-39.563636-95.418182z m-295.563636 128c-9.309091 32.581818-30.254545 62.836364-62.836364 81.454545-32.581818 18.618182-69.818182 20.945455-102.4 11.636364-34.909091-9.309091-65.163636-30.254545-83.781818-62.836364-18.618182-32.581818-20.945455-69.818182-11.636364-102.4 9.309091-32.581818 32.581818-60.509091 62.836364-79.127272 32.581818-18.618182 67.490909-23.272727 102.4-13.963637 32.581818 9.309091 62.836364 30.254545 81.454545 62.836364 18.618182 32.581818 23.272727 67.490909 13.963637 102.4z" p-id="1614" fill="#e6e6e6"></path></svg>