<?xml version="1.0" standalone="no"?><!DOCTYPE svg PUBLIC "-//W3C//DTD SVG 1.1//EN" "http://www.w3.org/Graphics/SVG/1.1/DTD/svg11.dtd"><svg t="1611193092637" class="icon" viewBox="0 0 1710 1024" version="1.1" xmlns="http://www.w3.org/2000/svg" p-id="3766" id="mx_n_1611193092640" xmlns:xlink="http://www.w3.org/1999/xlink" width="333.984375" height="200"><defs><style type="text/css"></style></defs><path d="M849.92 112.64c-237.58848 0-430.08 192.49152-430.08 430.08s192.49152 430.08 430.08 430.08 430.08-192.49152 430.08-430.08-192.49152-430.08-430.08-430.08z" fill="#3cd04f" p-id="3767" data-spm-anchor-id="a313x.7781069.0.i10" class="selected"></path><path d="M108.05248 797.7984l218.71616-218.70592c7.53664-7.53664 19.27168-7.53664 25.97888 0 7.53664 7.54688 7.53664 19.28192 0 25.97888L134.03136 823.78752c-7.53664 7.53664-19.27168 7.53664-25.97888 0-7.53664-6.7072-7.53664-18.432 0-25.97888z" fill="#FFB800" p-id="3768"></path><path d="M0 643.20512L133.12 573.44l-14.78656 112.64z" fill="#48AAF0" p-id="3769"></path><path d="M1249.28 40.96c0 23.04 17.92 40.96 40.96 40.96s40.96-17.92 40.96-40.96-17.92-40.96-40.96-40.96c-22.19008 0-40.96 17.92-40.96 40.96z" fill="#14CAB4" p-id="3770"></path><path d="M427.40736 87.74656L522.24 51.2l-36.54656 94.83264-94.83264 36.5568 36.54656-94.84288z m0 58.28608L389.12 52.9408l93.10208 38.27712L520.4992 184.32l-93.09184-38.28736z" fill="#FFB800" p-id="3771"></path><path d="M1443.96288 919.97184L1546.24 880.64l-39.33184 102.27712-102.27712 39.33184 39.33184-102.27712z m0 62.94528L1402.88 882.3808l100.52608 41.08288L1544.4992 1024l-100.52608-41.08288z" fill="#14CAB4" p-id="3772"></path><path d="M1376.57344 565.71904l223.6416-223.0784c6.71744-6.7072 16.80384-5.86752 23.53152 0a17.8176 17.8176 0 0 1 0 23.48032l-223.6416 223.0784c-6.71744 6.7072-16.80384 5.86752-23.53152 0a17.8176 17.8176 0 0 1 0-23.48032z" fill="#48AAF0" p-id="3773"></path><path d="M1335.74656 708.1984l345.53856-344.9344c6.93248-6.912 17.31584-6.0416 24.24832 0a18.3808 18.3808 0 0 1 0 24.20736l-345.53856 344.94464c-6.93248 6.912-17.31584 6.0416-24.24832 0a18.3808 18.3808 0 0 1 0-24.20736z" fill="#FFC94C" p-id="3774"></path><path d="M1050.97216 477.44l-227.54304 235.52c-5.13024 5.12-13.69088 5.12-18.82112 0l-135.168-139.95008c-5.12-5.12-5.12-14.49984 0-19.61984l41.92256-44.38016c5.14048-5.12 13.69088-5.12 18.82112 0l82.97472 86.19008 175.37024-181.76c5.12-5.12 13.68064-5.12 18.81088 0l42.77248 44.36992c5.9904 5.12 5.9904 14.51008 0.86016 19.63008z" fill="#FFFFFF" p-id="3775"></path></svg>