<?xml version="1.0" standalone="no"?><!DOCTYPE svg PUBLIC "-//W3C//DTD SVG 1.1//EN" "http://www.w3.org/Graphics/SVG/1.1/DTD/svg11.dtd"><svg t="1610594031004" class="icon" viewBox="0 0 1024 1024" version="1.1" xmlns="http://www.w3.org/2000/svg" p-id="16650" xmlns:xlink="http://www.w3.org/1999/xlink" width="200" height="200"><defs><style type="text/css"></style></defs><path d="M537.6 582.656m-290.816 0a290.816 290.816 0 1 0 581.632 0 290.816 290.816 0 1 0-581.632 0Z" fill="#FE9E51" p-id="16651"></path><path d="M875.52 298.496c-12.8 13.824-34.304 14.848-48.128 2.048-0.512-0.512-1.536-1.024-2.048-2.048l-99.84-99.84c-13.824-13.824-13.824-36.352 0-50.176 13.824-13.824 36.352-13.824 50.176 0L875.52 248.32c13.824 12.8 14.848 34.304 2.048 48.128-0.512 0.512-1.536 1.024-2.048 2.048zM668.672 537.6H532.48V401.92c0-18.944-15.36-33.792-33.792-33.792s-33.792 15.36-33.792 33.792v169.984c0 18.944 15.36 33.792 33.792 33.792h169.984c18.944 0 33.792-15.36 33.792-33.792 0-18.944-15.36-34.304-33.792-34.304zM197.632 298.496c-13.824 13.824-36.352 13.824-50.176 0-13.824-13.824-13.824-36.352 0-50.176L247.808 148.48c13.824-13.824 36.352-13.824 50.176 0 13.824 13.824 13.824 36.352 0 50.176L197.632 298.496z" fill="#888888" p-id="16652"></path><path d="M645.12 802.816c-39.936 20.992-85.504 32.768-133.632 32.768-159.744 0-289.28-129.536-289.28-289.28s129.536-289.28 289.28-289.28 289.28 129.536 289.28 289.28c0 68.096-23.552 130.56-62.464 179.712 0 0-14.336 17.408-2.048 34.304 13.312 17.92 32.256 8.192 32.256 8.192 51.712-59.392 82.944-137.216 82.944-222.208 0-187.904-152.064-339.968-339.968-339.968S171.52 358.4 171.52 546.304 324.096 885.76 511.488 885.76c59.392 0 110.592-12.8 159.232-39.424 0 0 13.312-11.776 3.584-32.256-10.752-15.872-29.184-11.264-29.184-11.264z" fill="#888888" p-id="16653"></path></svg>