<?xml version="1.0" standalone="no"?><!DOCTYPE svg PUBLIC "-//W3C//DTD SVG 1.1//EN" "http://www.w3.org/Graphics/SVG/1.1/DTD/svg11.dtd"><svg t="1622042593359" class="icon" viewBox="0 0 2194 1024" version="1.1" xmlns="http://www.w3.org/2000/svg" p-id="1254" xmlns:xlink="http://www.w3.org/1999/xlink" width="428.515625" height="200"><defs><style type="text/css"></style></defs><path d="M1706.861714 0c82.870857 0 161.572571 37.595429 215.259429 102.912l221.622857 269.312a225.28 225.28 0 0 1-0.950857 285.622857l-220.745143 264.777143A278.747429 278.747429 0 0 1 1708.032 1024H141.312C63.268571 1024 0 958.537143 0 877.714286V146.285714C0 65.462857 63.268571 0 141.312 0h1565.549714zM1147.611429 379.611429c-56.612571 0-98.889143 24.356571-126.902858 73.142857l-6.217142 11.702857V389.851429h-41.691429v522.971428h43.885714V689.005714c27.794286 59.465143 71.899429 89.234286 132.388572 89.234286 53.174857 0 95.305143-19.968 126.537143-59.977143 27.282286-37.083429 40.96-83.163429 40.96-138.24 0-56.539429-13.897143-103.131429-41.691429-139.702857-31.232-40.448-73.654857-60.708571-127.268571-60.708571z m375.222857 0c-40.448 0-73.654857 8.996571-99.474286 27.062857-27.282286 18.505143-40.96 43.154286-40.96 73.874285 0 31.232 14.409143 55.369143 43.154286 72.411429 17.042286 10.752 47.762286 21.942857 92.16 33.645714 42.422857 10.752 70.436571 19.529143 84.114285 26.331429 24.868571 12.214857 37.302857 29.769143 37.302858 52.662857 0 49.737143-36.571429 74.605714-109.714286 74.605714-35.108571 0-61.44-6.582857-78.994286-19.748571-16.676571-12.8-27.648-32.694857-33.133714-59.684572l-1.974857-11.995428h-43.154286c8.777143 86.308571 61.659429 129.462857 158.72 129.462857 102.4 0 153.6-38.253714 153.6-114.834286 0-32.182857-15.140571-57.563429-45.348571-76.068571-19.017143-11.702857-51.712-23.405714-98.011429-35.108572-38.034286-10.24-64.585143-19.017143-79.725714-26.331428-22.454857-11.702857-33.645714-27.062857-33.645715-46.08 0-18.505143 8.777143-33.645714 26.331429-45.348572 17.042286-11.190857 39.716571-16.822857 68.022857-16.822857 34.157714 0 59.757714 6.802286 76.8 20.48 13.824 10.459429 23.405714 26.112 29.037714 46.957715l2.413715 10.825142h43.154285c-10.752-77.531429-60.928-116.297143-150.674285-116.297142zM733.622857 245.76H305.737143v39.497143H497.371429v482.742857h44.617142V285.257143h191.634286v-39.497143z m125.074286 144.091429h-43.885714v378.148571h43.885714V389.851429z m283.794286 27.062857c42.422857 0 75.337143 16.310857 98.742857 49.005714 19.968 28.745143 29.988571 66.779429 29.988571 114.102857s-10.24 85.357714-30.72 114.102857c-23.917714 31.232-57.051429 46.811429-99.474286 46.811429-38.546286 0-69.266286-14.628571-92.16-43.885714-19.602286-25.161143-30.72-56.905143-33.133714-95.085715L1015.222857 585.142857v-8.045714c0-46.299429 10.459429-83.602286 31.451429-111.908572 22.893714-32.182857 54.857143-48.274286 95.817143-48.274285z m-305.737143-163.108572a34.377143 34.377143 0 0 0-26.331429 10.971429c-7.314286 5.851429-10.971429 14.409143-10.971428 25.6 0 10.24 3.657143 19.017143 10.971428 26.331428 6.802286 6.802286 15.579429 10.24 26.331429 10.24a38.034286 38.034286 0 0 0 25.6-10.24 36.352 36.352 0 0 0 11.702857-26.331428c0-11.190857-3.657143-19.748571-10.971429-25.6-7.314286-7.314286-16.091429-10.971429-26.331428-10.971429z" p-id="1255" fill="#d81e06"></path></svg>