<svg t="1616052082806" class="icon" viewBox="0 0 1024 1024" version="1.1"
    xmlns="http://www.w3.org/2000/svg" p-id="2227" width="200" height="200">
    <path d="M51.2 563.2m51.2 0l307.2 0q51.2 0 51.2 51.2l0 307.2q0 51.2-51.2 51.2l-307.2 0q-51.2 0-51.2-51.2l0-307.2q0-51.2 51.2-51.2Z" p-id="2228"></path>
    <path d="M563.2 51.2m51.2 0l307.2 0q51.2 0 51.2 51.2l0 307.2q0 51.2-51.2 51.2l-307.2 0q-51.2 0-51.2-51.2l0-307.2q0-51.2 51.2-51.2Z" p-id="2229"></path>
    <path d="M563.2 563.2m30.72 0l348.16 0q30.72 0 30.72 30.72l0 0q0 30.72-30.72 30.72l-348.16 0q-30.72 0-30.72-30.72l0 0q0-30.72 30.72-30.72Z" fill="#2c2c2c" p-id="2230" data-spm-anchor-id="a313x.7781069.0.i3" class="selected"></path>
    <path d="M563.2 737.28m30.72 0l266.24 0q30.72 0 30.72 30.72l0 0q0 30.72-30.72 30.72l-266.24 0q-30.72 0-30.72-30.72l0 0q0-30.72 30.72-30.72Z" fill="#2c2c2c" p-id="2231" data-spm-anchor-id="a313x.7781069.0.i4" class="selected"></path>
    <path d="M563.2 911.36m30.72 0l184.32 0q30.72 0 30.72 30.72l0 0q0 30.72-30.72 30.72l-184.32 0q-30.72 0-30.72-30.72l0 0q0-30.72 30.72-30.72Z" fill="#2c2c2c" p-id="2232" data-spm-anchor-id="a313x.7781069.0.i5" class="selected"></path>
    <path d="M51.2 51.2m51.2 0l307.2 0q51.2 0 51.2 51.2l0 307.2q0 51.2-51.2 51.2l-307.2 0q-51.2 0-51.2-51.2l0-307.2q0-51.2 51.2-51.2Z" p-id="2233"></path>
</svg>