<?xml version="1.0" standalone="no"?><!DOCTYPE svg PUBLIC "-//W3C//DTD SVG 1.1//EN" "http://www.w3.org/Graphics/SVG/1.1/DTD/svg11.dtd"><svg t="1623345315913" class="icon" viewBox="0 0 1024 1024" version="1.1" xmlns="http://www.w3.org/2000/svg" p-id="5944" xmlns:xlink="http://www.w3.org/1999/xlink" width="200" height="200"><defs><style type="text/css"></style></defs><path d="M271.795787 514.298987L50.037087 292.556286l34.539797-34.539798c8.639949-8.639949 21.289875-11.94793 33.219806-8.707949l247.264551 67.349606-93.265454 197.640842zM510.628388 753.147587l218.176722 218.176722 34.539797-34.539798a34.247799 34.247799 0 0 0 8.895948-33.013807l-64.82962-244.728566-196.782847 94.105449z" fill="#E66032" p-id="5945"></path><path d="M513.69637 756.197569c113.235337-32.207811 214.044746-85.603498 302.186229-173.728982 132.331225-132.331225 214.164745-321.092119 207.770783-481.743177-2.107988-52.82969-44.909737-95.63144-97.739427-97.723428-160.683058-6.359963-349.547952 75.575557-481.863177 207.890782-88.123484 88.123484-141.383172 188.812894-173.608983 302.04823l243.254575 243.256575z" fill="#E66032" p-id="5946"></path><path d="M370.925207 298.282252c-24.203858 34.437798-44.549739 70.485587-61.53764 108.161366l310.808179 310.808179c37.659779-17.0039 73.707568-37.351781 108.145366-61.537639L370.925207 298.282252z" fill="#AD4826" p-id="5947"></path><path d="M437.912814 777.385445l-193.938864-193.938864c-13.387922-13.387922-13.387922-35.087794 0-48.475716l24.237858-24.237858 242.41458 242.41458-24.237858 24.237858c-13.385922 13.387922-35.087794 13.387922-48.475716 0z" fill="#F5B945" p-id="5948"></path><path d="M609.139811 303.70422a113.561335 113.561335 0 1 0 227.122669 0 113.561335 113.561335 0 1 0-227.122669 0Z" fill="#F5B945" p-id="5949"></path><path d="M722.735145 374.373806c-18.889889 0-36.647785-7.369957-49.983707-20.723878l24.237858-24.237858c13.763919 13.763919 37.745779 13.763919 51.509698 0a36.207788 36.207788 0 0 0 10.679938-25.745849c0-9.719943-3.805978-18.889889-10.679938-25.763849l24.237858-24.237858c13.353922 13.353922 20.723879 31.111818 20.723879 50.001707 0 18.889889-7.369957 36.647785-20.723879 49.983707-13.353922 13.369922-31.111818 20.723879-50.001707 20.723878z" fill="#E66032" p-id="5950"></path><path d="M851.67439 134.047215a40.709761 40.709761 0 1 0 81.419523 0 40.709761 40.709761 0 1 0-81.419523 0Z" fill="#F5B945" p-id="5951"></path><path d="M147.006519 486.47715c-13.387922-13.387922-13.387922-35.087794 0-48.475716l24.237858-24.237858 48.475716 48.475716-24.237858 24.237858c-13.387922 13.387922-35.087794 13.387922-48.475716 0zM534.882246 874.354877c-13.387922-13.387922-13.387922-35.087794 0-48.475716l24.237858-24.237858 48.475716 48.475716-24.237858 24.237858c-13.385922 13.385922-35.087794 13.385922-48.475716 0z" fill="#F5B945" p-id="5952"></path><path d="M99.284798 582.692586c-13.387922 13.387922-83.58151 61.863638-96.969432 48.475716s35.087794-83.58151 48.475716-96.969432 35.087794-13.387922 48.475716 0 13.405921 35.105794 0.018 48.493716zM487.144526 970.552313c-13.387922 13.387922-83.58151 61.863638-96.969432 48.475716-13.387922-13.387922 35.087794-83.58151 48.475716-96.969432 13.387922-13.387922 35.087794-13.387922 48.475716 0 13.387922 13.387922 13.403921 35.105794 0.018 48.493716zM236.159996 738.747671c-25.385851 25.385851-158.473071 117.315313-183.858922 91.929462-25.385851-25.385851 66.54361-158.473071 91.929461-183.858923s66.54361-25.385851 91.929461 0c25.385851 25.387851 25.385851 66.54361 0 91.929461zM375.53518 878.192854c-25.009853 25.009853-156.175085 115.601323-181.184939 90.59147s65.583616-156.175085 90.591469-181.184939c25.009853-25.009853 65.583616-25.009853 90.59147 0 25.011853 25.011853 25.011853 65.585616 0.002 90.593469z" fill="#E66032" p-id="5953"></path></svg>