<?xml version="1.0" standalone="no"?><!DOCTYPE svg PUBLIC "-//W3C//DTD SVG 1.1//EN" "http://www.w3.org/Graphics/SVG/1.1/DTD/svg11.dtd"><svg t="1611713717168" class="icon" viewBox="0 0 1821 1024" version="1.1" xmlns="http://www.w3.org/2000/svg" p-id="6212" xmlns:xlink="http://www.w3.org/1999/xlink" width="355.6640625" height="200"><defs><style type="text/css"></style></defs><path d="M1362.117333 1018H459.206667c-64.362667 0-116.728-52.365333-116.728-116.728V256.882667c0-64.362667 52.365333-116.728 116.728-116.728h902.912c64.372 0 116.737333 52.365333 116.737333 116.728v644.389333c-0.001333 64.362667-52.366667 116.728-116.738667 116.728zM459.206667 214.837333c-23.184 0-42.045333 18.862667-42.045334 42.045334v644.389333c0 23.184 18.862667 42.045333 42.045334 42.045333h902.912c23.192 0 42.054667-18.862667 42.054666-42.045333V256.882667c0-23.184-18.862667-42.045333-42.054666-42.045334H459.206667z" fill="#333333" p-id="6213"></path><path d="M1277.069333 322.622667H1200.053333c-20.621333 0-37.341333-16.72-37.341333-37.341334s16.72-37.341333 37.341333-37.341333h77.016c20.621333 0 37.341333 16.72 37.341334 37.341333s-16.72 37.341333-37.341334 37.341334z" fill="#333333" p-id="6214"></path><path d="M1051.906667 749.989333c-78.241333 78.241333-205.094667 78.241333-283.334667 0 28.550667 28.550667 127.878667 1.025333 206.118667-77.216 78.241333-78.241333 110.245333-173.089333 77.216-206.118666 78.241333 78.24 78.241333 205.093333 0 283.334666z" fill="#FFD524" p-id="6215"></path><path d="M909.645333 868.894667c-48.92 0-96.945333-13.757333-139.364-40.458667-59.348-37.36-100.592-95.596-116.145333-163.984-15.024-66.058667-4.193333-134.478667 30.494667-192.646667 10.566667-17.722667 33.476-23.502667 51.198666-12.945333 17.713333 10.566667 23.512 33.485333 12.945334 51.198667-24.814667 41.617333-32.564 90.564-21.816 137.833333 22.964 101.010667 123.766667 164.508 224.850666 141.548 101.010667-22.969333 164.508-123.838667 141.544-224.854667-19.701333-86.653333-98.796-148.144-187.044-146.225333-20.630667 0.510667-37.697333-15.904-38.144-36.521333s15.898667-37.697333 36.521334-38.144c1.896-0.041333 3.784-0.064 5.670666-0.064 121.66 0 228.716 85.153333 255.82 204.397333 32.098667 141.169333-56.641333 282.134667-197.810666 314.233333-19.510667 4.436-39.184 6.628-58.721334 6.633334z" fill="#333333" p-id="6216"></path><path d="M790.337333 452.838667c-12.434667 0-24.586667-6.204-31.670666-17.508-10.958667-17.472-5.670667-40.518667 11.797333-51.476a264.06 264.06 0 0 1 7.994667-4.818667c17.850667-10.342667 40.696-4.230667 51.025333 13.616 10.329333 17.845333 4.238667 40.692-13.610667 51.021333-1.933333 1.121333-3.846667 2.274667-5.734666 3.46a37.190667 37.190667 0 0 1-19.801334 5.705334zM490.238667 208.269333a37.156 37.156 0 0 1-21.450667-6.805333c-16.865333-11.865333-20.922667-35.157333-9.053333-52.024l72.622666-103.24C548.813333 21.005333 576.509333 6 606.657333 6h162.612c30.905333 0 59.084 15.672 75.393334 41.913333 10.885333 17.517333 5.506667 40.541333-12.006667 51.426667-17.521333 10.88-40.532 5.506667-51.426667-12.006667a13.990667 13.990667 0 0 0-11.961333-6.650666H606.657333a13.988 13.988 0 0 0-11.86 6.5c-0.301333 0.469333-0.62 0.934667-0.938666 1.390666l-73.041334 103.833334c-7.266667 10.333333-18.826667 15.862667-30.578666 15.862666z" fill="#333333" p-id="6217"></path></svg>