<?xml version="1.0" standalone="no"?><!DOCTYPE svg PUBLIC "-//W3C//DTD SVG 1.1//EN" "http://www.w3.org/Graphics/SVG/1.1/DTD/svg11.dtd"><svg t="1611113401598" class="icon" viewBox="0 0 1024 1024" version="1.1" xmlns="http://www.w3.org/2000/svg" p-id="4746" xmlns:xlink="http://www.w3.org/1999/xlink" width="200" height="200"><defs><style type="text/css"></style></defs><path d="M64 64h895.98v896H64z" fill="#666666" fill-opacity="0" p-id="4747"></path><path d="M512.01 542.12c-161.15 0-322.05-48.93-436.71-146.6a32.875 32.875 0 0 1-11.2-22.62 32.895 32.895 0 0 1 8.14-23.9c12.09-13.7 32.98-15.06 46.74-3.04 202.19 173.97 584.75 173.97 786.07 0 13.76-12.02 34.65-10.67 46.74 3.04 12.05 13.69 10.7 34.52-3.06 46.54-114.67 97.64-275.57 146.58-436.72 146.58zM392.34 686.07c-1.96 0.22-3.94 0.22-5.9 0-9.03-1.24-17.17-6.22-22.35-13.69a32.33 32.33 0 0 1-4.93-25.69L381 518.4c3.19-18.04 20.38-30.1 38.43-26.95a33.1 33.1 0 0 1 27.07 38.28L424.67 658c-2.3 16.09-16.07 28.05-32.33 28.07z m490.87-65.26c-8.71 0-17.07-3.53-23.15-9.78L752.43 502.32c-9.32-8.01-13.33-20.6-10.36-32.52s12.41-21.16 24.4-23.87a32.832 32.832 0 0 1 32.45 10.73l107.67 108.71c12.77 12.74 12.77 33.38 0 46.12a34.168 34.168 0 0 1-23.39 9.33h0.01z m-742.41 0a34.16 34.16 0 0 1-21.83-9.33 32.519 32.519 0 0 1 0-46.12l107.64-108.71a32.81 32.81 0 0 1 33.59-13.25 32.828 32.828 0 0 1 25.44 25.62c2.52 12.87-2.94 26-13.84 33.3L164.17 611.03a32.382 32.382 0 0 1-23.37 9.78z m492.39 65.26c-15.82-0.04-29.34-11.4-32.11-26.98l-21.83-128.3a32.515 32.515 0 0 1 8.54-33.97 32.844 32.844 0 0 1 34.5-6.72c11.85 4.65 19.91 15.68 20.73 28.3l21.83 128.3c1.59 8.51-0.3 17.3-5.28 24.42a32.576 32.576 0 0 1-21.15 13.44 27.15 27.15 0 0 1-5.23 1.49v0.02z" fill="#666666" p-id="4748"></path></svg>