<?xml version="1.0" standalone="no"?><!DOCTYPE svg PUBLIC "-//W3C//DTD SVG 1.1//EN" "http://www.w3.org/Graphics/SVG/1.1/DTD/svg11.dtd"><svg t="1611122208060" class="icon" viewBox="0 0 1024 1024" version="1.1" xmlns="http://www.w3.org/2000/svg" p-id="11041" xmlns:xlink="http://www.w3.org/1999/xlink" width="200" height="200"><defs><style type="text/css"></style></defs><path d="M512 172.8c-175.744 0-332.8 108.736-470.592 321.824a32 32 0 0 0 0 34.752C179.2 742.496 336.256 851.2 512 851.2c175.744 0 332.8-108.736 470.592-321.824a32 32 0 0 0 0-34.752C844.8 281.504 687.744 172.8 512 172.8z m9.6 64.128c140.896 3.84 271.072 91.936 390.976 267.904l4.8 7.168-4.8 7.168c-122.624 179.968-256 268.032-400.576 268.032l-9.6-0.128c-140.896-3.84-271.072-91.936-390.976-267.904L106.592 512l4.832-7.168C234.048 324.864 367.424 236.8 512 236.8l9.6 0.128z" fill="#717378" p-id="11042"></path><path d="M512 343.456a168.544 168.544 0 1 0 0 337.088 168.544 168.544 0 0 0 0-337.088z m0 64a104.544 104.544 0 1 1 0 209.088 104.544 104.544 0 0 1 0-209.088z" fill="#717378" p-id="11043"></path></svg>